<mxfile host="app.diagrams.net" modified="2024-04-30T04:05:02.697Z" agent="Mozilla/5.0 (Windows NT 10.0; Win64; x64) AppleWebKit/537.36 (KHTML, like Gecko) Chrome/124.0.0.0 Safari/537.36" etag="FHx1MxCZS3sZGmcXF6gK" version="24.3.1" type="github">
  <diagram name="Page-1" id="Ty9Bi51ElXm7GjR0Q6K9">
    <mxGraphModel dx="1750" dy="957" grid="1" gridSize="10" guides="1" tooltips="1" connect="1" arrows="1" fold="1" page="1" pageScale="1" pageWidth="827" pageHeight="1169" math="0" shadow="0">
      <root>
        <mxCell id="0" />
        <mxCell id="1" parent="0" />
        <mxCell id="EL7jnCxkU_Jh41EQuMRc-9" value="" style="edgeStyle=orthogonalEdgeStyle;rounded=0;orthogonalLoop=1;jettySize=auto;html=1;" edge="1" parent="1" source="EL7jnCxkU_Jh41EQuMRc-1" target="EL7jnCxkU_Jh41EQuMRc-2">
          <mxGeometry relative="1" as="geometry" />
        </mxCell>
        <mxCell id="EL7jnCxkU_Jh41EQuMRc-1" value="&lt;font style=&quot;font-size: 25px;&quot;&gt;user registration&lt;/font&gt;" style="rounded=0;whiteSpace=wrap;html=1;" vertex="1" parent="1">
          <mxGeometry x="299" y="30" width="230" height="70" as="geometry" />
        </mxCell>
        <mxCell id="EL7jnCxkU_Jh41EQuMRc-10" value="" style="edgeStyle=orthogonalEdgeStyle;rounded=0;orthogonalLoop=1;jettySize=auto;html=1;" edge="1" parent="1" source="EL7jnCxkU_Jh41EQuMRc-2" target="EL7jnCxkU_Jh41EQuMRc-3">
          <mxGeometry relative="1" as="geometry" />
        </mxCell>
        <mxCell id="EL7jnCxkU_Jh41EQuMRc-2" value="&lt;span style=&quot;font-size: 25px;&quot;&gt;enter personal informations and password&lt;/span&gt;" style="rounded=0;whiteSpace=wrap;html=1;" vertex="1" parent="1">
          <mxGeometry x="294" y="170" width="240" height="100" as="geometry" />
        </mxCell>
        <mxCell id="EL7jnCxkU_Jh41EQuMRc-17" style="edgeStyle=orthogonalEdgeStyle;rounded=0;orthogonalLoop=1;jettySize=auto;html=1;entryX=0;entryY=0.5;entryDx=0;entryDy=0;" edge="1" parent="1" source="EL7jnCxkU_Jh41EQuMRc-3" target="EL7jnCxkU_Jh41EQuMRc-8">
          <mxGeometry relative="1" as="geometry" />
        </mxCell>
        <mxCell id="EL7jnCxkU_Jh41EQuMRc-21" value="NO" style="edgeLabel;html=1;align=center;verticalAlign=middle;resizable=0;points=[];" vertex="1" connectable="0" parent="EL7jnCxkU_Jh41EQuMRc-17">
          <mxGeometry x="-0.0998" relative="1" as="geometry">
            <mxPoint as="offset" />
          </mxGeometry>
        </mxCell>
        <mxCell id="EL7jnCxkU_Jh41EQuMRc-18" style="edgeStyle=orthogonalEdgeStyle;rounded=0;orthogonalLoop=1;jettySize=auto;html=1;exitX=0.5;exitY=1;exitDx=0;exitDy=0;" edge="1" parent="1" source="EL7jnCxkU_Jh41EQuMRc-3" target="EL7jnCxkU_Jh41EQuMRc-4">
          <mxGeometry relative="1" as="geometry" />
        </mxCell>
        <mxCell id="EL7jnCxkU_Jh41EQuMRc-20" value="YES" style="edgeLabel;html=1;align=center;verticalAlign=middle;resizable=0;points=[];" vertex="1" connectable="0" parent="EL7jnCxkU_Jh41EQuMRc-18">
          <mxGeometry x="0.0058" y="-3" relative="1" as="geometry">
            <mxPoint as="offset" />
          </mxGeometry>
        </mxCell>
        <mxCell id="EL7jnCxkU_Jh41EQuMRc-3" value="&lt;font style=&quot;font-size: 22px;&quot;&gt;chek if the entered email is unique&lt;span style=&quot;background-color: initial;&quot;&gt;&amp;nbsp;&lt;/span&gt;&lt;/font&gt;" style="rhombus;whiteSpace=wrap;html=1;" vertex="1" parent="1">
          <mxGeometry x="299" y="360" width="231" height="200" as="geometry" />
        </mxCell>
        <mxCell id="EL7jnCxkU_Jh41EQuMRc-22" style="edgeStyle=orthogonalEdgeStyle;rounded=0;orthogonalLoop=1;jettySize=auto;html=1;entryX=0.5;entryY=0;entryDx=0;entryDy=0;" edge="1" parent="1" source="EL7jnCxkU_Jh41EQuMRc-4" target="EL7jnCxkU_Jh41EQuMRc-6">
          <mxGeometry relative="1" as="geometry" />
        </mxCell>
        <mxCell id="EL7jnCxkU_Jh41EQuMRc-4" value="&lt;font style=&quot;font-size: 25px;&quot;&gt;registered successfully&lt;/font&gt;" style="rounded=0;whiteSpace=wrap;html=1;" vertex="1" parent="1">
          <mxGeometry x="299" y="650" width="230" height="70" as="geometry" />
        </mxCell>
        <mxCell id="EL7jnCxkU_Jh41EQuMRc-6" value="&lt;font style=&quot;font-size: 24px;&quot;&gt;finish&lt;/font&gt;" style="rounded=1;whiteSpace=wrap;html=1;" vertex="1" parent="1">
          <mxGeometry x="354.5" y="810" width="120" height="60" as="geometry" />
        </mxCell>
        <mxCell id="EL7jnCxkU_Jh41EQuMRc-19" style="edgeStyle=orthogonalEdgeStyle;rounded=0;orthogonalLoop=1;jettySize=auto;html=1;entryX=1;entryY=0.5;entryDx=0;entryDy=0;exitX=1;exitY=0.5;exitDx=0;exitDy=0;" edge="1" parent="1" source="EL7jnCxkU_Jh41EQuMRc-8" target="EL7jnCxkU_Jh41EQuMRc-6">
          <mxGeometry relative="1" as="geometry">
            <mxPoint x="740" y="800" as="sourcePoint" />
          </mxGeometry>
        </mxCell>
        <mxCell id="EL7jnCxkU_Jh41EQuMRc-8" value="&lt;font style=&quot;font-size: 25px;&quot;&gt;error message desplay&lt;/font&gt;" style="rounded=0;whiteSpace=wrap;html=1;rotation=90;" vertex="1" parent="1">
          <mxGeometry x="597" y="580" width="230" height="70" as="geometry" />
        </mxCell>
      </root>
    </mxGraphModel>
  </diagram>
</mxfile>
